# xmcd
#
# Track frame offsets:
#	150
#	12707
#	31684
#	44950
#	62140
#	77193
#	90279
#	110992
#	130034
#	141954
#	159417
#	177048
#	194885
#	213913
#	236385
#	247285
#	263905
#	276693
#	290181
#	303798
#
# Disc length: 4312
#
# Revision: 2
# Processed by: cddbd v1.5.1PL0 Copyright (c) Steve Scherf et al.
# Submitted via: EasyCDDAExtractor 4.6.9.1
# Normalized: r0:TDELIM( - );r1:TSWAP
#
DISCID=3810d614
DTITLE=Emmylou Harris - Singin' With Emmylou - Vol 1
DYEAR=2000
DGENRE=Country
TTITLE0=Willie Nelson and Emmylou Harris - Angel Eyes (Angel Eyes)
TTITLE1=Dan Fogelberg With Emmylou Harris - Only The Heart May Know
TTITLE2=Gram Parsons and The Fallen Angels - That's All It Took (Live)
TTITLE3=Kathy Mattea - What Could Have Been
TTITLE4=Vince Gill - Oh Carolina
TTITLE5=George Jones and Emmylou Harris - Here We Are
TTITLE6=Trisha Yearwood - Woman Walk The Line
TTITLE7=Lyle Lovett - Walk Through The Bottomland
TTITLE8=Glen Campbell - You Are
TTITLE9=Waylon Jennings and Emmylou Harris - Spanish Johnny
TTITLE10=Jann Browne - Mexican Wind
TTITLE11=Guy Clark - Anyhow, I Love You
TTITLE12=Jon Randall - Just Like You
TTITLE13=David Bromberg Band - Nobody's
TTITLE14=Pure Prairie League - Just Can't Believe It
TTITLE15=Gary Stewart - Rachel
TTITLE16=Herb Pedersen - Our Baby's Gone
TTITLE17=Rosanne Cash - Hometown Blues
TTITLE18=Mary Kay Place - Streets Of This Town (Ode To Fernwood)
TTITLE19=Steve Goodman - Fourteen Days
EXTD=
EXTT0=
EXTT1=
EXTT2=
EXTT3=
EXTT4=
EXTT5=
EXTT6=
EXTT7=
EXTT8=
EXTT9=
EXTT10=
EXTT11=
EXTT12=
EXTT13=
EXTT14=
EXTT15=
EXTT16=
EXTT17=
EXTT18=
EXTT19=
PLAYORDER=
